<svg xmlns="http://www.w3.org/2000/svg" version="1.1" xmlns:xlink="http://www.w3.org/1999/xlink" xmlns:svgjs="http://svgjs.com/svgjs" width="512" height="512" x="0" y="0" viewBox="0 0 512 512" style="enable-background:new 0 0 512 512" xml:space="preserve" class=""><g>
<circle xmlns="http://www.w3.org/2000/svg" style="" cx="256" cy="256" r="256" fill="#12b1df" data-original="#ec5353" class=""></circle>
<path xmlns="http://www.w3.org/2000/svg" style="" d="M277.767,511.07c117.433-9.89,212.291-99.04,230.901-213.774L389,177.628l-3.607,20.766L342,155  L99.407,332.71L277.767,511.07z" fill="#12b1df" data-original="#d13135" class=""></path>
<polygon xmlns="http://www.w3.org/2000/svg" style="" points="425.806,235.922 389,177.628 332.817,177.628 332.817,332.71 454.752,332.71   454.752,248.548 " fill="#ffffff" data-original="#ffffff" class=""></polygon>
<polygon xmlns="http://www.w3.org/2000/svg" style="" points="353.333,193 381,193 407,236 353.333,236 " fill="#68b6f3" data-original="#68b6f3" class=""></polygon>
<rect xmlns="http://www.w3.org/2000/svg" x="99.41" y="155" style="" width="242.59" height="177.71" fill="#ffffff" data-original="#ffffff" class=""></rect>
<rect xmlns="http://www.w3.org/2000/svg" x="220.45" y="155" style="" width="121.55" height="177.71" fill="#e0e0e0" data-original="#e0e0e0" class=""></rect>
<rect xmlns="http://www.w3.org/2000/svg" x="99.41" y="283" style="" width="242.59" height="19.333" fill="#f98585" data-original="#f98585" class=""></rect>
<rect xmlns="http://www.w3.org/2000/svg" x="220.45" y="283" style="" width="121.55" height="19.333" fill="#e27979" data-original="#e27979" class=""></rect>
<circle xmlns="http://www.w3.org/2000/svg" style="" cx="396.71" cy="333.66" r="40.05" fill="#303030" data-original="#303030" class=""></circle>
<g xmlns="http://www.w3.org/2000/svg">
	<circle style="" cx="396.71" cy="333.66" r="18.225" fill="#595959" data-original="#595959" class=""></circle>
	<circle style="" cx="159.46" cy="333.66" r="40.05" fill="#595959" data-original="#595959" class=""></circle>
</g>
<circle xmlns="http://www.w3.org/2000/svg" style="" cx="159.46" cy="333.66" r="18.225" fill="#969696" data-original="#969696"></circle>
<polygon xmlns="http://www.w3.org/2000/svg" style="" points="258.371,233 258.37,203.667 235.37,203.667 235.37,180.667 206.037,180.667 206.037,203.667   183.037,203.666 183.037,233 206.037,233 206.037,256 235.37,256 235.37,233 " fill="#12b1df" data-original="#ec5353" class=""></polygon>
<polygon xmlns="http://www.w3.org/2000/svg" style="" points="258.37,203.667 235.37,203.667 235.37,180.667 220.452,180.667 220.452,256 235.37,256   235.37,233 258.37,233 " fill="#12b1df" data-original="#d13135" class=""></polygon>
<g xmlns="http://www.w3.org/2000/svg">
</g>
<g xmlns="http://www.w3.org/2000/svg">
</g>
<g xmlns="http://www.w3.org/2000/svg">
</g>
<g xmlns="http://www.w3.org/2000/svg">
</g>
<g xmlns="http://www.w3.org/2000/svg">
</g>
<g xmlns="http://www.w3.org/2000/svg">
</g>
<g xmlns="http://www.w3.org/2000/svg">
</g>
<g xmlns="http://www.w3.org/2000/svg">
</g>
<g xmlns="http://www.w3.org/2000/svg">
</g>
<g xmlns="http://www.w3.org/2000/svg">
</g>
<g xmlns="http://www.w3.org/2000/svg">
</g>
<g xmlns="http://www.w3.org/2000/svg">
</g>
<g xmlns="http://www.w3.org/2000/svg">
</g>
<g xmlns="http://www.w3.org/2000/svg">
</g>
<g xmlns="http://www.w3.org/2000/svg">
</g>
</g></svg>