<svg xmlns="http://www.w3.org/2000/svg" version="1.1" xmlns:xlink="http://www.w3.org/1999/xlink" xmlns:svgjs="http://svgjs.com/svgjs" width="512" height="512" x="0" y="0" viewBox="0 0 512 512" style="enable-background:new 0 0 512 512" xml:space="preserve" class=""><g>
<rect xmlns="http://www.w3.org/2000/svg" x="202.66" y="209.12" style="" width="104.76" height="139.53" fill="#e7e4cd" data-original="#e7e4cd" class=""></rect>
<path xmlns="http://www.w3.org/2000/svg" style="" d="M255.963,243.788c-0.405,0-0.814,0.008-1.223,0.023c-0.063,0.002-0.125,0.005-0.188,0.008  c-9.044,0.395-16.655-6.652-16.655-15.705V209.12h-35.238v139.531h35.238v-19.888c0-8.728,7.103-15.789,15.831-15.735  c8.526,0.053,17.31,0.082,17.31,0.082c9.272,0,16.815-7.543,16.815-16.815v-20.616C287.853,258.094,273.547,243.788,255.963,243.788  z" fill="#cec393" data-original="#cec393"></path>
<path xmlns="http://www.w3.org/2000/svg" style="" d="M316.064,105.189l-13.089,3.496V74.716l50.697,4.162c0,0-7.284,22.891-7.73,23.337  C345.496,102.662,316.064,105.189,316.064,105.189z" fill="#f22f66" data-original="#f22f66"></path>
<g xmlns="http://www.w3.org/2000/svg">
	<path style="" d="M302.975,108.685l32.898-23.641V69.126l65.565-0.295c2.806-0.012,4.22,3.38,2.236,5.364   l-12.096,12.096c-1.227,1.227-1.227,3.217,0,4.444l12.587,12.586c1.98,1.979,0.578,5.364-2.222,5.364H302.975z" fill="#ff507d" data-original="#ff507d"></path>
	<path style="" d="M254.538,84.108V45.256h76.469c2.688,0,4.866,2.179,4.866,4.866v34.922L254.538,84.108z" fill="#ff507d" data-original="#ff507d"></path>
</g>
<path xmlns="http://www.w3.org/2000/svg" style="" d="M247.538,49.521v112.103c0,4.107,3.165,7.688,7.27,7.811c4.247,0.127,7.73-3.278,7.73-7.497V49.521  c0-4.142-3.358-7.5-7.5-7.5l0,0C250.896,42.021,247.538,45.378,247.538,49.521z" fill="#b5b5b5" data-original="#b5b5b5"></path>
<polygon xmlns="http://www.w3.org/2000/svg" style="" points="112.337,335.199 112.337,462.703 211.216,462.703 300.708,462.703 398.663,462.703   398.663,335.199 " fill="#ddd6af" data-original="#ddd6af"></polygon>
<g xmlns="http://www.w3.org/2000/svg">
	<path style="" d="M144.5,391.164v-11.247c0-9.229,7.551-17.088,16.779-16.935c8.97,0.149,16.221,7.493,16.221,16.498   v11.684c0,2.66-2.156,4.816-4.816,4.816h-23.369C146.656,395.979,144.5,393.823,144.5,391.164z" fill="#a19495" data-original="#a19495"></path>
	<path style="" d="M334.5,391.164v-11.247c0-9.229,7.551-17.088,16.779-16.935c8.97,0.149,16.221,7.493,16.221,16.498   v11.684c0,2.66-2.156,4.816-4.816,4.816h-23.369C336.656,395.979,334.5,393.823,334.5,391.164z" fill="#a19495" data-original="#a19495"></path>
	<path style="" d="M210.216,462.979v-46.022c0-25.225,20.521-45.746,45.746-45.746s45.746,20.521,45.746,45.746v46.022   H210.216z" fill="#a19495" data-original="#a19495"></path>
</g>
<path xmlns="http://www.w3.org/2000/svg" style="" d="M255.962,371.211c-15.162,0-28.617,7.42-36.946,18.813c7.324-4.984,16.163-7.903,25.671-7.903  c25.225,0,45.746,20.521,45.746,45.746v35.112h11.274v-46.022C301.708,391.732,281.187,371.211,255.962,371.211z" fill="#998486" data-original="#998486"></path>
<path xmlns="http://www.w3.org/2000/svg" style="" d="M236.07,296.295v-20.126c0-10.772,8.36-19.958,19.124-20.366  c11.316-0.428,20.659,8.653,20.659,19.876v20.616c0,2.66-2.156,4.816-4.816,4.816h-30.151  C238.226,301.11,236.07,298.954,236.07,296.295z" fill="#a19495" data-original="#a19495"></path>
<path xmlns="http://www.w3.org/2000/svg" style="" d="M255.194,255.803c-6.85,0.259-12.716,4.081-16.083,9.598c2.333-1.125,4.917-1.806,7.66-1.909  c11.316-0.428,20.659,8.653,20.659,19.876v17.743h3.608c2.66,0,4.816-2.156,4.816-4.815V275.68  C275.853,264.456,266.51,255.375,255.194,255.803z" fill="#998486" data-original="#998486"></path>
<path xmlns="http://www.w3.org/2000/svg" style="" d="M180.913,220.362l68.396-85.585c3.144-3.934,9.131-3.919,12.255,0.031l67.691,85.577  c3.08,3.894,0.307,9.624-4.658,9.624H185.553C180.574,230.01,177.805,224.252,180.913,220.362z" fill="#e94f3d" data-original="#e94f3d" class=""></path>
<path xmlns="http://www.w3.org/2000/svg" style="" d="M255.5,131.84c-2.299-0.022-4.606,0.955-6.191,2.938l-68.396,85.585  c-3.108,3.89-0.339,9.647,4.64,9.647h52.46L255.5,131.84z" fill="#d12824" data-original="#d12824" class=""></path>
<g xmlns="http://www.w3.org/2000/svg">
	<rect x="397.66" y="304.73" style="" width="74.871" height="157.98" fill="#e7e4cd" data-original="#e7e4cd" class=""></rect>
	<rect x="38.466" y="304.73" style="" width="74.871" height="157.98" fill="#e7e4cd" data-original="#e7e4cd" class=""></rect>
</g>
<path xmlns="http://www.w3.org/2000/svg" style="" d="M76.478,318.983L76.478,318.983c-1.522,0.028-2.774-1.197-2.774-2.718v-11.538H38.466v157.976h35.238  v-84.005c0-1.501,1.217-2.719,2.719-2.719h11.262c9.287,0,16.815-7.529,16.815-16.815v-11.685  C104.5,332.023,91.93,319.24,76.478,318.983z" fill="#cec393" data-original="#cec393"></path>
<path xmlns="http://www.w3.org/2000/svg" style="" d="M59.5,359.164v-11.247c0-9.229,7.551-17.088,16.779-16.935c8.97,0.149,16.221,7.493,16.221,16.498  v11.684c0,2.66-2.156,4.816-4.816,4.816H64.316C61.656,363.979,59.5,361.823,59.5,359.164z" fill="#a19495" data-original="#a19495"></path>
<path xmlns="http://www.w3.org/2000/svg" style="" d="M435.478,318.983L435.478,318.983c-1.414,0.024-2.577-1.114-2.577-2.527v-11.728h-35.238v157.976  h35.238v-84.196c0-1.396,1.132-2.528,2.528-2.528h11.256c9.287,0,16.815-7.529,16.815-16.815V347.48  C463.5,332.023,450.93,319.24,435.478,318.983z" fill="#cec393" data-original="#cec393"></path>
<path xmlns="http://www.w3.org/2000/svg" style="" d="M418.5,359.164v-11.247c0-9.229,7.551-17.088,16.779-16.935c8.97,0.149,16.221,7.493,16.221,16.498  v11.684c0,2.66-2.156,4.816-4.816,4.816h-23.369C420.656,363.979,418.5,361.823,418.5,359.164z" fill="#a19495" data-original="#a19495"></path>
<g xmlns="http://www.w3.org/2000/svg">
	<path style="" d="M161.279,362.982c-6.181-0.103-11.596,3.398-14.507,8.489c2.402-1.351,5.156-2.113,8.083-2.064   c8.969,0.149,16.221,7.493,16.221,16.498v10.075h1.609c2.66,0,4.816-2.156,4.816-4.815V379.48   C177.5,370.475,170.248,363.131,161.279,362.982z" fill="#998486" data-original="#998486"></path>
	<path style="" d="M351.279,362.982c-6.181-0.103-11.596,3.398-14.507,8.489c2.402-1.351,5.156-2.113,8.083-2.064   c8.969,0.149,16.221,7.493,16.221,16.498v10.075h1.609c2.66,0,4.816-2.156,4.816-4.815V379.48   C367.5,370.475,360.248,363.131,351.279,362.982z" fill="#998486" data-original="#998486"></path>
	<path style="" d="M76.279,330.982c-6.181-0.103-11.596,3.398-14.507,8.489c2.402-1.351,5.156-2.113,8.083-2.064   c8.969,0.149,16.221,7.493,16.221,16.498v10.075h1.609c2.66,0,4.816-2.156,4.816-4.815V347.48   C92.5,338.475,85.248,331.131,76.279,330.982z" fill="#998486" data-original="#998486"></path>
	<path style="" d="M435.279,330.982c-6.181-0.103-11.596,3.398-14.507,8.489c2.402-1.351,5.156-2.113,8.083-2.064   c8.969,0.149,16.221,7.493,16.221,16.498v10.075h1.609c2.66,0,4.816-2.156,4.816-4.815V347.48   C451.5,338.475,444.248,331.131,435.279,330.982z" fill="#998486" data-original="#998486"></path>
</g>
<path xmlns="http://www.w3.org/2000/svg" style="" d="M504.5,469.979H7.5c-4.143,0-7.5-3.357-7.5-7.5s3.357-7.5,7.5-7.5h497c4.143,0,7.5,3.357,7.5,7.5  S508.643,469.979,504.5,469.979z" fill="#b5b5b5" data-original="#b5b5b5"></path>
<g xmlns="http://www.w3.org/2000/svg">
	<path style="" d="M377.811,302.021V244.72c0-2.047,1.659-3.707,3.707-3.707h16.035c2.047,0,3.707,1.659,3.707,3.707   v13.363c0,2.047,1.659,3.707,3.707,3.707h11.677c2.047,0,3.707-1.659,3.707-3.707V244.72c0-2.047,1.659-3.707,3.707-3.707h14.7   c2.047,0,3.707,1.659,3.707,3.707v13.363c0,2.047,1.659,3.707,3.707,3.707h11.677c2.047,0,3.707-1.659,3.707-3.707V244.72   c0-2.047,1.659-3.707,3.707-3.707h16.035c2.047,0,3.707,1.659,3.707,3.707v57.301c0,2.047-1.659,3.707-3.707,3.707h-99.776   C379.47,305.728,377.811,304.068,377.811,302.021z" fill="#e94f3d" data-original="#e94f3d" class=""></path>
	<path style="" d="M26,302.021V244.72c0-2.047,1.659-3.707,3.707-3.707h16.035c2.047,0,3.707,1.659,3.707,3.707v13.363   c0,2.047,1.659,3.707,3.707,3.707h11.677c2.047,0,3.707-1.659,3.707-3.707V244.72c0-2.047,1.659-3.707,3.707-3.707h14.7   c2.047,0,3.707,1.659,3.707,3.707v13.363c0,2.047,1.659,3.707,3.707,3.707h11.677c2.047,0,3.707-1.659,3.707-3.707V244.72   c0-2.047,1.659-3.707,3.707-3.707h16.035c2.047,0,3.707,1.659,3.707,3.707v57.301c0,2.047-1.659,3.707-3.707,3.707h-99.78   C27.659,305.728,26,304.068,26,302.021z" fill="#e94f3d" data-original="#e94f3d" class=""></path>
</g>
<g xmlns="http://www.w3.org/2000/svg">
	<path style="" d="M424.055,241.014c-2.047,0-3.707,1.66-3.707,3.707v13.363c0,2.047-1.659,3.707-3.707,3.707h-11.677   c-2.047,0-3.707-1.66-3.707-3.707V244.72c0-2.047-1.659-3.707-3.707-3.707h-16.035c-2.047,0-3.707,1.66-3.707,3.707v57.301   c0,2.047,1.659,3.707,3.707,3.707h51.384v-64.714H424.055z" fill="#d12824" data-original="#d12824" class=""></path>
	<path style="" d="M72.245,241.014c-2.047,0-3.707,1.66-3.707,3.707v13.363c0,2.047-1.659,3.707-3.707,3.707H53.155   c-2.047,0-3.707-1.66-3.707-3.707V244.72c0-2.047-1.659-3.707-3.707-3.707H29.707c-2.047,0-3.707,1.66-3.707,3.707v57.301   c0,2.047,1.659,3.707,3.707,3.707h43.997v-64.714H72.245z" fill="#d12824" data-original="#d12824" class=""></path>
</g>
<g xmlns="http://www.w3.org/2000/svg">
</g>
<g xmlns="http://www.w3.org/2000/svg">
</g>
<g xmlns="http://www.w3.org/2000/svg">
</g>
<g xmlns="http://www.w3.org/2000/svg">
</g>
<g xmlns="http://www.w3.org/2000/svg">
</g>
<g xmlns="http://www.w3.org/2000/svg">
</g>
<g xmlns="http://www.w3.org/2000/svg">
</g>
<g xmlns="http://www.w3.org/2000/svg">
</g>
<g xmlns="http://www.w3.org/2000/svg">
</g>
<g xmlns="http://www.w3.org/2000/svg">
</g>
<g xmlns="http://www.w3.org/2000/svg">
</g>
<g xmlns="http://www.w3.org/2000/svg">
</g>
<g xmlns="http://www.w3.org/2000/svg">
</g>
<g xmlns="http://www.w3.org/2000/svg">
</g>
<g xmlns="http://www.w3.org/2000/svg">
</g>
</g></svg>